<?xml version="1.0" standalone="no"?><svg xmlns="http://www.w3.org/2000/svg" viewBox="0 0 1440 320"><path fill="#009DAE" fill-opacity="1" d="M0,256L30,224C60,192,120,128,180,90.7C240,53,300,43,360,32C420,21,480,11,540,16C600,21,660,43,720,64C780,85,840,107,900,128C960,149,1020,171,1080,170.7C1140,171,1200,149,1260,165.3C1320,181,1380,235,1410,261.3L1440,288L1440,320L1410,320C1380,320,1320,320,1260,320C1200,320,1140,320,1080,320C1020,320,960,320,900,320C840,320,780,320,720,320C660,320,600,320,540,320C480,320,420,320,360,320C300,320,240,320,180,320C120,320,60,320,30,320L0,320Z"></path></svg>